<svg xmlns="http://www.w3.org/2000/svg" viewBox="0 0 800 600" fill="none">
  <path d="M400 150c-110.457 0-200 89.543-200 200s89.543 200 200 200 200-89.543 200-200S510.457 150 400 150zm0 60c38.66 0 70 31.34 70 70s-31.34 70-70 70-70-31.34-70-70 31.34-70 70-70zm0 280c-58.97 0-111.14-30.13-141.42-75.82C289.42 384.06 343.9 370 400 370s110.58 14.06 141.42 44.18C511.14 459.87 458.97 490 400 490z" fill="#4F46E5" opacity="0.1"/>
  <path d="M400 290c27.614 0 50-22.386 50-50s-22.386-50-50-50-50 22.386-50 50 22.386 50 50 50z" fill="#4F46E5" opacity="0.2"/>
  <path d="M400 350c-66.274 0-120 53.726-120 120 0 66.274 53.726 120 120 120s120-53.726 120-120c0-66.274-53.726-120-120-120zm0 180c-33.137 0-60-26.863-60-60s26.863-60 60-60 60 26.863 60 60-26.863 60-60 60z" fill="#4F46E5" opacity="0.1"/>
</svg>