<svg xmlns="http://www.w3.org/2000/svg" viewBox="0 0 800 600" fill="none">
  <path d="M400 100c-165.685 0-300 134.315-300 300s134.315 300 300 300 300-134.315 300-300S565.685 100 400 100zm0 100c55.228 0 100 44.772 100 100s-44.772 100-100 100-100-44.772-100-100 44.772-100 100-100z" fill="#4F46E5" opacity="0.1"/>
  <path d="M500 400H300c-27.614 0-50 22.386-50 50v50h300v-50c0-27.614-22.386-50-50-50z" fill="#4F46E5" opacity="0.2"/>
  <path d="M400 270c33.137 0 60-26.863 60-60s-26.863-60-60-60-60 26.863-60 60 26.863 60 60 60z" fill="#4F46E5" opacity="0.2"/>
  <path d="M550 450c0-82.843-67.157-150-150-150s-150 67.157-150 150" stroke="#4F46E5" stroke-width="40" opacity="0.1"/>
</svg>